<svg width="40" height="39" viewBox="0 0 40 39" fill="none" xmlns="http://www.w3.org/2000/svg">
    <path d="M39.6134 11.0291C39.861 11.2859 40 11.6337 40 11.9963C40 12.3588 39.861 12.7067 39.6134 12.9634L36.8494 15.8239L31.5494 10.3441L34.3133 7.48362C34.5618 7.2268 34.8988 7.08252 35.2501 7.08252C35.6015 7.08252 35.9384 7.2268 36.1869 7.48362L39.6134 11.0263V11.0291ZM34.9758 17.7583L29.6758 12.2785L11.6212 30.9482C11.4753 31.099 11.3655 31.2829 11.3005 31.4852L9.16724 38.0994C9.12855 38.22 9.12306 38.3493 9.15138 38.4729C9.17969 38.5965 9.2407 38.7096 9.32759 38.7994C9.41447 38.8892 9.52381 38.9523 9.64338 38.9816C9.76294 39.0109 9.88803 39.0052 10.0047 38.9652L16.4018 36.7596C16.5973 36.6932 16.7751 36.5806 16.9212 36.4308L34.9758 17.7583Z" fill="#8C8C8C"/>
    <path d="M12.5586 6.49231C12.7668 6.49231 12.9664 6.57781 13.1136 6.73C13.2608 6.8822 13.3435 7.08861 13.3435 7.30385V12.1731H18.053C18.2612 12.1731 18.4608 12.2586 18.608 12.4108C18.7552 12.5629 18.8379 12.7694 18.8379 12.9846C18.8379 13.1998 18.7552 13.4062 18.608 13.5584C18.4608 13.7106 18.2612 13.7961 18.053 13.7961H13.3435V18.6653C13.3435 18.8806 13.2608 19.087 13.1136 19.2392C12.9664 19.3914 12.7668 19.4769 12.5586 19.4769C12.3504 19.4769 12.1508 19.3914 12.0036 19.2392C11.8564 19.087 11.7737 18.8806 11.7737 18.6653V13.7961H7.06421C6.85604 13.7961 6.65639 13.7106 6.50919 13.5584C6.36199 13.4062 6.2793 13.1998 6.2793 12.9846C6.2793 12.7694 6.36199 12.5629 6.50919 12.4108C6.65639 12.2586 6.85604 12.1731 7.06421 12.1731H11.7737V7.30385C11.7737 7.08861 11.8564 6.8822 12.0036 6.73C12.1508 6.57781 12.3504 6.49231 12.5586 6.49231Z" fill="#8C8C8C"/>
</svg>
