<svg width="38" height="38" viewBox="0 0 38 38" fill="none" xmlns="http://www.w3.org/2000/svg">
    <path d="M15.8333 11.0833C15.8333 17.2045 20.7955 22.1666 26.9167 22.1666C30.0175 22.1666 32.8209 20.8931 34.8325 18.8408C34.8333 18.8939 34.8333 18.9469 34.8333 19C34.8333 27.7444 27.7444 34.8333 19 34.8333C10.2555 34.8333 3.16667 27.7444 3.16667 19C3.16667 10.2554 10.2555 3.16663 19 3.16663C19.053 3.16663 19.1061 3.16663 19.1591 3.1674C17.1068 5.17901 15.8333 7.98244 15.8333 11.0833ZM6.33334 19C6.33334 25.9956 12.0044 31.6666 19 31.6666C23.8423 31.6666 28.05 28.9495 30.1815 24.9566C29.1246 25.2046 28.0305 25.3333 26.9167 25.3333C19.0466 25.3333 12.6667 18.9534 12.6667 11.0833C12.6667 9.96939 12.7954 8.87529 13.0433 7.81846C9.05051 9.94999 6.33334 14.1577 6.33334 19Z" fill="#8C8C8C"/>
</svg>
