<svg width="48" height="48" viewBox="0 0 48 48" fill="none" xmlns="http://www.w3.org/2000/svg">
    <path d="M20 14C20 21.732 26.268 28 34 28C37.9168 28 41.458 26.3914 43.999 23.799C44 23.866 44 23.933 44 24C44 35.0456 35.0456 44 24 44C12.9543 44 4 35.0456 4 24C4 12.9543 12.9543 4 24 4C24.067 4 24.134 4 24.201 4.00098C21.6086 6.54196 20 10.0831 20 14ZM8 24C8 32.8366 15.1634 40 24 40C30.1166 40 35.4316 36.5678 38.124 31.5242C36.789 31.8374 35.407 32 34 32C24.0588 32 16 23.9412 16 14C16 12.593 16.1627 11.2109 16.4758 9.876C11.4322 12.5685 8 17.8834 8 24Z" fill="#8C8C8C"/>
</svg>
