<svg width="40" height="40" viewBox="0 0 40 40" fill="none" xmlns="http://www.w3.org/2000/svg">
    <path d="M35 20C35 18.1667 33.5 16.6667 31.6667 16.6667C29.8333 16.6667 28.3333 18.1667 28.3333 20C28.3333 21.8334 29.8333 23.3334 31.6667 23.3334C33.5 23.3334 35 21.8334 35 20ZM11.6667 20C11.6667 18.1667 10.1667 16.6667 8.33333 16.6667C6.5 16.6667 5 18.1667 5 20C5 21.8334 6.5 23.3334 8.33333 23.3334C10.1667 23.3334 11.6667 21.8334 11.6667 20ZM23.3333 20C23.3333 18.1667 21.8333 16.6667 20 16.6667C18.1667 16.6667 16.6667 18.1667 16.6667 20C16.6667 21.8334 18.1667 23.3334 20 23.3334C21.8333 23.3334 23.3333 21.8334 23.3333 20Z" fill="#8C8C8C"/>
</svg>
